<?xml version="1.0" standalone="no"?>
<!DOCTYPE svg PUBLIC "-//W3C//DTD SVG 20010904//EN"
 "http://www.w3.org/TR/2001/REC-SVG-20010904/DTD/svg10.dtd">
<svg version="1.0" xmlns="http://www.w3.org/2000/svg"
 width="256.000000pt" height="256.000000pt" viewBox="0 0 256.000000 256.000000"
 preserveAspectRatio="xMidYMid meet">
<metadata>
Created by potrace 1.14, written by Peter Selinger 2001-2017
</metadata>
<g transform="translate(0.000000,256.000000) scale(0.100000,-0.100000)"
fill="#000000" stroke="none">
<path d="M650 1888 c-67 -41 -133 -121 -184 -225 -55 -111 -105 -261 -120
-367 -4 -21 -8 -48 -11 -60 -3 -12 -7 -43 -11 -71 -3 -27 -7 -63 -9 -80 -5
-31 -6 -279 -2 -327 1 -16 5 -28 10 -28 4 0 7 -8 7 -19 0 -10 12 -36 26 -57
15 -21 20 -33 12 -26 -12 9 -15 9 -15 -3 0 -7 3 -14 6 -13 22 2 41 -4 41 -13
0 -5 -5 -7 -12 -3 -7 4 -8 3 -4 -5 6 -9 11 -9 21 -1 10 8 15 8 21 -1 5 -8 3
-9 -6 -4 -9 5 -11 4 -6 -4 6 -9 11 -9 24 1 14 11 15 10 9 -6 -7 -16 -5 -17 9
-6 13 11 19 11 36 1 11 -7 17 -8 14 -2 -6 8 15 20 48 25 6 1 21 8 34 14 12 7
22 9 22 5 0 -4 10 4 22 17 13 14 23 19 26 12 2 -7 8 -12 13 -12 4 0 6 6 3 13
-3 8 15 30 43 53 26 21 52 44 56 51 5 8 12 11 16 8 5 -2 8 3 7 13 0 10 6 17
16 16 9 -1 14 4 12 11 -9 21 98 175 122 175 8 0 14 4 14 10 0 5 7 7 15 4 8 -4
15 -2 15 3 0 5 6 10 13 11 6 0 29 5 49 10 28 7 36 7 31 -2 -3 -6 2 -4 13 5 10
9 26 17 34 17 8 1 45 3 83 5 65 4 67 3 51 -14 -15 -17 -15 -19 -1 -25 18 -7
64 21 49 30 -6 3 -12 -1 -16 -9 -3 -8 -13 -15 -23 -15 -15 0 -14 2 4 19 17 16
27 18 68 10 26 -5 51 -6 56 -3 5 3 9 0 9 -5 0 -6 -6 -11 -14 -11 -19 0 -31
-19 -19 -31 5 -5 20 -2 36 6 25 13 29 12 34 -1 5 -13 8 -13 24 2 11 9 19 12
19 6 0 -6 -4 -14 -10 -17 -5 -3 -10 -11 -10 -17 0 -5 8 -1 18 11 16 20 19 20
47 5 46 -24 77 -56 72 -76 -3 -10 -1 -15 4 -12 5 3 12 -3 16 -13 3 -10 20 -36
37 -58 17 -21 25 -36 19 -32 -7 5 -13 4 -13 -1 0 -5 9 -12 20 -15 11 -3 20
-13 20 -22 0 -9 5 -13 10 -10 6 3 10 -3 10 -14 0 -12 5 -21 11 -21 5 0 7 5 3
12 -4 7 -3 8 5 4 6 -4 9 -12 6 -17 -4 -5 0 -9 7 -9 14 0 48 -34 48 -49 0 -5 7
-12 16 -15 15 -6 15 -4 3 10 -13 16 -12 16 8 4 16 -10 19 -18 12 -26 -7 -8 -6
-15 2 -20 7 -4 9 -3 6 3 -4 6 0 14 9 17 12 5 15 2 10 -11 -6 -14 -4 -15 4 -6
9 8 20 8 45 -3 18 -7 36 -10 41 -6 5 4 2 -1 -5 -10 -7 -10 -10 -18 -5 -18 5 0
3 -4 -5 -9 -8 -5 -16 -17 -17 -25 -1 -9 2 -14 7 -10 5 3 7 9 4 14 -3 4 2 11
11 14 9 3 12 11 8 18 -5 8 -2 9 10 5 9 -4 15 -3 12 2 -3 5 1 12 10 15 12 5 15
2 10 -11 -6 -15 -5 -15 11 -1 30 25 52 29 63 10 9 -14 10 -14 5 6 -6 22 10 32
17 11 2 -7 9 -5 17 5 12 14 12 16 -4 10 -13 -5 -16 -3 -13 7 3 8 10 14 16 14
5 0 14 4 19 9 5 5 3 6 -4 2 -7 -4 -13 -3 -13 2 0 17 13 22 27 10 10 -8 17 -8
24 -1 8 8 6 11 -7 10 -11 -1 -19 4 -19 13 0 8 6 14 14 12 12 -3 12 0 2 12 -8
10 -9 16 -1 21 6 3 8 10 5 15 -3 5 2 16 11 24 8 9 11 16 6 16 -15 0 0 59 17
63 12 4 13 5 1 6 -12 1 -15 21 -15 114 0 101 -8 209 -19 262 -2 11 -12 55 -21
98 -87 417 -299 673 -477 578 -123 -66 -415 -92 -644 -57 -148 23 -157 26
-182 49 -16 15 -39 22 -80 25 -51 3 -63 0 -112 -30z m867 -223 c8 -9 18 -13
21 -10 4 3 0 10 -8 16 -11 7 -8 9 12 6 30 -3 68 -33 68 -54 0 -7 6 -13 13 -13
8 0 7 -4 -3 -10 -10 -6 -11 -10 -2 -10 6 0 12 -5 12 -11 0 -5 -4 -8 -9 -5 -5
4 -7 -3 -4 -14 13 -50 -83 -98 -131 -67 -23 16 -43 58 -40 87 1 8 2 22 3 31 1
16 38 69 47 69 3 0 12 -7 21 -15z m-556 -14 c20 -1 61 -40 54 -52 -11 -17 5
-30 24 -20 37 20 66 -107 40 -176 -13 -34 -55 -80 -91 -99 -39 -20 -118 -20
-162 1 -59 28 -113 114 -94 150 8 13 7 16 -1 11 -13 -8 -13 -1 -5 43 4 18 11
28 17 24 6 -4 8 0 4 11 -4 11 5 29 29 54 19 20 34 30 32 22 -2 -8 -7 -19 -13
-23 -6 -5 -4 -7 5 -4 8 2 16 9 16 15 1 7 2 16 3 21 2 17 41 23 58 9 10 -7 14
-8 10 -1 -8 13 10 22 38 18 11 -2 27 -4 36 -4z m72 -62 c-9 -9 -12 -7 -10 9 1
14 5 18 11 12 7 -7 6 -14 -1 -21z m731 -130 c-5 -9 -2 -10 9 -6 11 4 24 -2 37
-15 26 -28 26 -47 0 -23 -17 15 -23 16 -33 5 -10 -10 -9 -12 3 -8 25 9 61 -26
56 -54 -3 -12 -5 -26 -5 -29 -1 -3 -12 -18 -26 -33 -52 -57 -151 -22 -162 58
-3 23 -1 36 5 32 5 -3 7 4 5 17 -3 16 5 28 26 42 33 23 97 33 85 14z m-338
-457 c-7 -12 -46 -23 -46 -13 0 7 43 29 49 25 1 -2 0 -7 -3 -12z m44 -2 c0 -5
-4 -10 -9 -10 -6 0 -13 5 -16 10 -3 6 1 10 9 10 9 0 16 -4 16 -10z"/>
<path d="M1482 1654 c-7 -8 -8 -14 -3 -14 10 0 25 19 20 25 -2 1 -10 -3 -17
-11z"/>
<path d="M1555 1659 c-4 -6 -5 -12 -2 -15 2 -3 7 2 10 11 7 17 1 20 -8 4z"/>
<path d="M1510 1640 c0 -6 7 -10 15 -10 8 0 15 2 15 4 0 2 -7 6 -15 10 -8 3
-15 1 -15 -4z"/>
<path d="M1575 1640 c3 -5 11 -10 16 -10 6 0 7 5 4 10 -3 6 -11 10 -16 10 -6
0 -7 -4 -4 -10z"/>
<path d="M1467 1623 c-3 -5 5 -8 18 -8 13 0 21 3 18 8 -2 4 -10 7 -18 7 -8 0
-16 -3 -18 -7z"/>
<path d="M1553 1608 c-2 -18 0 -20 7 -8 12 18 13 30 2 30 -4 0 -9 -10 -9 -22z"/>
<path d="M1580 1599 c0 -5 5 -7 10 -4 6 3 10 8 10 11 0 2 -4 4 -10 4 -5 0 -10
-5 -10 -11z"/>
<path d="M902 1646 c4 -5 3 -15 -3 -23 -9 -9 -8 -13 0 -13 6 0 11 5 11 10 0 6
5 9 11 8 6 -2 13 3 15 10 1 7 0 8 -3 2 -3 -7 -10 -7 -21 2 -10 7 -14 8 -10 4z"/>
<path d="M850 1631 c0 -6 5 -13 10 -16 6 -4 7 -11 4 -17 -4 -7 -2 -8 4 -4 9 5
9 13 2 27 -11 20 -20 25 -20 10z"/>
<path d="M970 1630 c0 -5 5 -10 11 -10 5 0 7 5 4 10 -3 6 -8 10 -11 10 -2 0
-4 -4 -4 -10z"/>
<path d="M830 1625 c0 -5 5 -17 10 -25 5 -8 10 -10 10 -5 0 6 -5 17 -10 25 -5
8 -10 11 -10 5z"/>
<path d="M950 1621 c0 -6 4 -13 10 -16 6 -3 7 1 4 9 -7 18 -14 21 -14 7z"/>
<path d="M915 1600 c-3 -5 -2 -10 4 -10 5 0 13 5 16 10 3 6 2 10 -4 10 -5 0
-13 -4 -16 -10z"/>
<path d="M985 1600 c3 -5 8 -10 11 -10 2 0 4 5 4 10 0 6 -5 10 -11 10 -5 0 -7
-4 -4 -10z"/>
<path d="M764 1578 c-4 -7 -4 -10 1 -6 4 4 16 -3 27 -15 l19 -22 -17 28 c-19
31 -20 32 -30 15z"/>
<path d="M815 1579 c-4 -6 -5 -12 -2 -15 2 -3 7 2 10 11 7 17 1 20 -8 4z"/>
<path d="M973 1575 c0 -8 4 -12 9 -9 5 3 6 10 3 15 -9 13 -12 11 -12 -6z"/>
<path d="M756 1547 c3 -10 9 -15 12 -12 3 3 0 11 -7 18 -10 9 -11 8 -5 -6z"/>
<path d="M1066 1517 c3 -10 9 -15 12 -12 3 3 0 11 -7 18 -10 9 -11 8 -5 -6z"/>
<path d="M1698 1446 c-15 -11 -11 -12 30 -13 26 0 39 2 29 4 -9 3 -15 9 -12
14 4 5 1 9 -4 9 -6 0 -11 -4 -11 -10 0 -5 -5 -10 -11 -10 -5 0 -7 5 -4 10 8
13 4 12 -17 -4z"/>
<path d="M1668 1413 c6 -3 10 -9 7 -13 -3 -5 0 -12 6 -16 8 -5 9 -3 4 6 -6 9
-4 12 7 8 8 -4 15 -1 15 5 0 7 -12 13 -26 13 -14 1 -20 -1 -13 -3z"/>
<path d="M1742 1407 c10 -8 14 -18 10 -22 -4 -5 -1 -5 6 -1 17 10 15 14 -10
26 -21 10 -21 10 -6 -3z"/>
<path d="M1795 1380 c-3 -5 -1 -10 4 -10 6 0 11 5 11 10 0 6 -2 10 -4 10 -3 0
-8 -4 -11 -10z"/>
<path d="M1193 1013 c0 -7 4 -13 8 -13 4 0 9 6 12 13 3 8 0 14 -7 14 -7 0 -13
-6 -13 -14z"/>
<path d="M1232 1017 c-7 -8 -6 -18 4 -31 8 -11 14 -15 14 -9 0 7 -5 15 -10 18
-8 5 -7 11 1 21 6 8 9 14 6 14 -2 0 -9 -6 -15 -13z"/>
<path d="M1115 1009 c-4 -6 -5 -12 -2 -15 2 -3 7 2 10 11 7 17 1 20 -8 4z"/>
<path d="M1140 1005 c-7 -9 -10 -18 -6 -22 3 -3 6 -1 6 6 0 6 10 16 23 21 15
6 17 9 6 9 -9 1 -22 -6 -29 -14z"/>
<path d="M1335 1010 c3 -5 -1 -10 -9 -10 -8 0 -18 -4 -21 -10 -4 -6 2 -7 16
-1 25 9 38 31 19 31 -6 0 -8 -4 -5 -10z"/>
<path d="M1022 992 c-10 -7 -8 -12 6 -25 15 -14 19 -14 19 -2 0 8 -4 12 -9 9
-4 -3 -8 -1 -8 5 0 5 6 12 13 14 6 3 8 6 2 6 -5 0 -16 -3 -23 -7z"/>
<path d="M1155 989 c-4 -6 -5 -12 -2 -15 2 -3 7 2 10 11 7 17 1 20 -8 4z"/>
<path d="M1060 981 c0 -5 8 -8 18 -7 9 2 21 -2 25 -8 6 -7 7 -6 5 3 -4 16 -48
26 -48 12z"/>
<path d="M1179 988 c-6 -21 -5 -37 2 -32 5 3 7 9 4 14 -3 4 1 11 7 13 10 4 10
6 1 6 -7 1 -13 0 -14 -1z"/>
<path d="M1210 980 c0 -5 5 -10 11 -10 5 0 7 5 4 10 -3 6 -8 10 -11 10 -2 0
-4 -4 -4 -10z"/>
<path d="M1350 983 c0 -6 8 -17 18 -24 16 -13 16 -13 2 6 -8 11 -16 22 -17 24
-2 2 -3 0 -3 -6z"/>
<path d="M956 961 c-6 -10 39 -32 48 -24 10 10 7 33 -4 33 -5 0 -7 -7 -4 -15
5 -11 2 -13 -10 -9 -9 3 -13 10 -10 15 3 5 1 9 -5 9 -5 0 -12 -4 -15 -9z"/>
<path d="M1290 966 c0 -2 7 -7 16 -10 8 -3 12 -2 9 4 -6 10 -25 14 -25 6z"/>
<path d="M1410 961 c0 -6 4 -13 10 -16 6 -3 7 1 4 9 -7 18 -14 21 -14 7z"/>
<path d="M1494 958 c-4 -6 -3 -8 4 -4 5 3 13 0 15 -6 3 -8 6 -6 6 5 1 19 -14
23 -25 5z"/>
<path d="M1533 948 c-2 -16 1 -18 10 -9 7 7 8 14 1 21 -6 6 -10 2 -11 -12z"/>
<path d="M1450 951 c0 -6 4 -13 10 -16 6 -3 7 1 4 9 -7 18 -14 21 -14 7z"/>
<path d="M915 930 c-21 -23 -29 -56 -17 -64 5 -3 8 5 7 17 -1 12 4 30 13 39
14 17 16 17 29 0 13 -15 13 -15 3 6 -13 27 -13 27 -35 2z"/>
<path d="M1105 940 c-3 -6 1 -7 9 -4 18 7 21 14 7 14 -6 0 -13 -4 -16 -10z"/>
<path d="M1566 937 c3 -10 9 -15 12 -12 3 3 0 11 -7 18 -10 9 -11 8 -5 -6z"/>
<path d="M1551 914 c0 -11 3 -14 6 -6 3 7 2 16 -1 19 -3 4 -6 -2 -5 -13z"/>
<path d="M1570 879 c0 -5 5 -7 10 -4 6 3 10 8 10 11 0 2 -4 4 -10 4 -5 0 -10
-5 -10 -11z"/>
<path d="M1596 858 c3 -5 10 -6 15 -3 13 9 11 12 -6 12 -8 0 -12 -4 -9 -9z"/>
<path d="M1633 825 c0 -8 4 -15 9 -15 4 0 8 4 8 9 0 6 -4 12 -8 15 -5 3 -9 -1
-9 -9z"/>
<path d="M788 723 c6 -2 9 -10 6 -15 -4 -7 -2 -8 4 -4 18 11 14 26 -5 25 -11
0 -13 -3 -5 -6z"/>
<path d="M722 684 c-7 -8 -8 -14 -3 -14 10 0 25 19 20 25 -2 1 -10 -3 -17 -11z"/>
<path d="M314 676 c1 -8 5 -18 8 -22 4 -3 5 1 4 10 -1 8 -5 18 -8 22 -4 3 -5
-1 -4 -10z"/>
<path d="M1705 680 c-3 -6 1 -7 9 -4 18 7 21 14 7 14 -6 0 -13 -4 -16 -10z"/>
<path d="M1750 671 c0 -7 -5 -9 -12 -5 -7 4 -10 3 -5 -1 4 -5 18 -10 30 -12
12 -2 18 0 12 5 -5 4 -13 11 -17 16 -5 5 -8 4 -8 -3z"/>
<path d="M684 658 c-4 -7 -4 -10 1 -6 4 4 14 0 22 -10 13 -15 13 -15 3 6 -12
25 -16 27 -26 10z"/>
<path d="M735 661 c-3 -5 -2 -12 3 -15 5 -3 9 1 9 9 0 17 -3 19 -12 6z"/>
<path d="M636 615 c-9 -26 -7 -32 5 -12 6 10 9 21 6 23 -2 3 -7 -2 -11 -11z"/>
<path d="M1788 623 c10 -4 10 -8 0 -21 -12 -15 -11 -16 4 -3 19 14 15 32 -5
30 -8 0 -8 -2 1 -6z"/>
<path d="M656 594 c-5 -14 -4 -15 9 -4 17 14 19 20 6 20 -5 0 -12 -7 -15 -16z"/>
<path d="M355 591 c-3 -5 -2 -12 3 -15 5 -3 9 1 9 9 0 17 -3 19 -12 6z"/>
<path d="M1890 594 c0 -6 7 -17 15 -24 12 -10 13 -16 3 -28 -10 -12 -10 -14
-1 -8 7 4 18 16 24 28 8 15 8 19 -1 13 -6 -4 -18 1 -25 11 -8 11 -15 14 -15 8z"/>
<path d="M570 580 c0 -5 5 -10 11 -10 5 0 7 -5 3 -12 -4 -7 -3 -8 5 -4 9 6 9
11 0 22 -14 17 -19 18 -19 4z"/>
<path d="M613 575 c0 -8 4 -12 9 -9 5 3 6 10 3 15 -9 13 -12 11 -12 -6z"/>
<path d="M1855 569 c-4 -6 -5 -12 -2 -15 2 -3 7 2 10 11 7 17 1 20 -8 4z"/>
<path d="M2030 561 c0 -24 16 -36 26 -20 5 8 3 9 -6 4 -10 -6 -12 -3 -8 13 4
12 2 22 -3 22 -5 0 -9 -9 -9 -19z"/>
<path d="M2060 571 c0 -10 19 -25 25 -20 1 2 -3 10 -11 17 -8 7 -14 8 -14 3z"/>
<path d="M460 560 c0 -6 7 -10 15 -10 8 0 15 2 15 4 0 2 -7 6 -15 10 -8 3 -15
1 -15 -4z"/>
<path d="M553 563 c4 -6 2 -13 -5 -15 -8 -3 -6 -6 4 -10 17 -7 19 15 3 29 -4
4 -5 3 -2 -4z"/>
<path d="M1875 561 c-3 -5 -2 -12 3 -15 5 -3 9 1 9 9 0 17 -3 19 -12 6z"/>
<path d="M504 545 c-10 -8 -14 -15 -8 -15 6 0 17 7 24 15 16 19 9 19 -16 0z"/>
<path d="M1975 541 c-3 -5 0 -13 6 -17 7 -4 9 -3 5 4 -3 5 0 13 6 15 9 4 10 6
1 6 -6 1 -14 -3 -18 -8z"/>
<path d="M455 520 c-3 -6 1 -7 9 -4 18 7 21 14 7 14 -6 0 -13 -4 -16 -10z"/>
<path d="M530 519 c0 -5 5 -7 10 -4 6 3 10 8 10 11 0 2 -4 4 -10 4 -5 0 -10
-5 -10 -11z"/>
<path d="M2006 518 c3 -5 10 -6 15 -3 13 9 11 12 -6 12 -8 0 -12 -4 -9 -9z"/>
<path d="M2070 519 c0 -5 5 -7 10 -4 6 3 10 8 10 11 0 2 -4 4 -10 4 -5 0 -10
-5 -10 -11z"/>
</g>
</svg>
